<svg width="91" height="24" viewBox="0 0 91 24" fill="none" xmlns="http://www.w3.org/2000/svg">
<path d="M7.05711 23.6566C7.05711 23.6566 7.04346 9.23354 7.05711 4.76926C7.06565 1.9761 0 3.53574 0 3.53574V0.304972H17.6182V3.53574C17.6182 3.53574 10.5938 1.98888 10.5938 4.76926C10.5938 9.23354 10.5938 23.6566 10.5938 23.6566H7.05711Z" fill="white"/>
<path d="M19.6649 23.6566C19.6649 14.5372 19.6649 9.42436 19.6649 0.304972H33.9919V3.73902H23.2644V7.85992H33.2524V11.294H23.2644V20.4258H33.9919V23.6566H19.6649Z" fill="white"/>
<path d="M45.1644 24C42.3699 24 40.1539 23.2088 38.5166 21.6264C36.8792 20.022 36.0604 17.7143 36.0604 14.7033V9.2967C36.0604 6.28572 36.8792 3.98902 38.5166 2.4066C40.1539 0.802198 42.3699 0 45.1644 0C47.9151 0 50.0327 0.769232 51.5173 2.3077C53.0237 3.84616 53.7768 5.45602 53.7768 7.66212V7.85992H50.273V7.56322C50.273 6.00278 49.4963 5.01614 49.0013 4.4258C48.1715 3.4368 46.889 3.1978 45.1644 3.1978C43.4177 3.1978 42.0532 3.73626 41.0708 4.81318C40.0885 5.86814 39.5972 7.34066 39.5972 9.23078V14.7692C39.5972 16.6374 40.0885 18.1099 41.0708 19.1868C42.0532 20.2638 43.4177 20.8022 45.1644 20.8022C46.889 20.8022 48.1661 20.3076 48.9959 19.3187C49.8471 18.3077 50.273 17.033 50.273 15.4945V14.9341H53.7768V15.3956C53.7768 18.0549 53.0237 20.1538 51.5173 21.6924C50.0327 23.2308 47.9151 24 45.1644 24Z" fill="white"/>
<path d="M55.8236 23.6566V0.304948H69.4684V3.73902H59.3604V7.85992H68.7862V11.294H59.3604V23.6566H55.8236Z" fill="white"/>
<path d="M79.4727 23.6566V15.0082L71.5152 0.304924H75.5103L81.0121 10.7555H81.5031L87.0049 0.304924H91L83.0423 15.0082V23.6566H79.4727Z" fill="white"/>
</svg>
